<?xml version="1.0" standalone="no"?>
<!DOCTYPE svg PUBLIC "-//W3C//DTD SVG 20010904//EN"
 "http://www.w3.org/TR/2001/REC-SVG-20010904/DTD/svg10.dtd">
<svg version="1.0" xmlns="http://www.w3.org/2000/svg"
 width="1280.000000pt" height="823.000000pt" viewBox="0 0 1280.000000 823.000000"
 preserveAspectRatio="xMidYMid meet">
<g transform="translate(0.000000,823.000000) scale(0.100000,-0.100000)"
fill="#000000" stroke="none">
<path d="M5475 7113 c-11 -3 -24 -9 -30 -13 -5 -4 -41 -10 -80 -14 -187 -17
-351 -40 -365 -51 -8 -7 -46 -15 -85 -19 -247 -24 -644 -130 -1074 -286 -473
-172 -858 -357 -1272 -610 -155 -95 -344 -223 -379 -255 -14 -13 -55 -43 -92
-67 -95 -61 -354 -286 -483 -419 -133 -137 -186 -200 -254 -299 -28 -41 -80
-113 -115 -159 -64 -83 -207 -353 -222 -416 -3 -16 -20 -57 -36 -91 -16 -34
-34 -92 -40 -130 -5 -38 -16 -80 -22 -94 -15 -31 -13 -361 2 -405 6 -16 20
-68 32 -115 26 -108 63 -186 151 -325 502 -786 521 -813 669 -942 193 -170
421 -291 679 -362 40 -11 78 -24 85 -29 6 -5 63 -19 126 -31 63 -12 123 -26
132 -31 10 -6 37 -10 61 -10 24 0 47 -4 53 -10 13 -13 47 -14 109 -5 41 6 54
4 64 -9 12 -14 49 -16 295 -16 235 1 284 3 301 16 16 12 36 14 97 8 56 -5 82
-3 93 6 8 7 52 16 97 21 265 29 744 140 983 227 44 16 112 35 152 42 l71 13
94 -82 c102 -89 333 -258 484 -353 133 -83 381 -209 496 -252 53 -20 111 -45
130 -55 49 -29 432 -155 593 -195 77 -20 195 -44 262 -55 67 -11 130 -24 140
-30 24 -13 296 -51 367 -51 30 0 58 -4 61 -10 3 -6 49 -10 104 -10 54 0 102
-5 107 -10 7 -7 119 -9 340 -6 278 3 359 8 524 29 247 33 316 44 414 68 43 10
91 19 107 19 76 0 522 134 714 215 259 109 647 333 777 448 214 190 410 416
469 541 15 32 36 68 47 80 43 46 182 414 182 480 0 12 6 31 14 42 8 11 24 56
35 100 11 43 45 162 76 264 107 357 128 537 91 770 -46 281 -109 451 -222 596
-24 32 -47 70 -50 84 -11 52 -27 81 -53 96 -14 9 -51 48 -81 87 -74 95 -286
306 -389 387 -368 288 -790 509 -1306 682 -49 17 -106 36 -125 43 -19 7 -64
20 -100 29 -36 9 -136 35 -224 57 -270 69 -780 147 -963 149 -47 0 -85 5 -88
11 -5 7 -107 10 -325 8 l-319 -2 -35 26 c-19 15 -58 55 -88 89 -107 124 -238
234 -351 293 -51 27 -96 54 -102 61 -12 14 -132 60 -284 108 -154 49 -326 84
-473 97 -68 6 -131 15 -141 20 -11 6 -123 10 -280 8 -144 -1 -273 1 -287 4
-14 3 -34 3 -45 0z m9 -1209 c33 -13 12 -33 -109 -108 -179 -110 -273 -184
-411 -321 -303 -300 -478 -642 -520 -1015 -16 -134 -16 -137 14 -410 43 -387
45 -416 32 -439 -15 -30 -50 -45 -185 -80 -66 -18 -154 -43 -195 -56 -183 -59
-427 -107 -825 -162 -175 -24 -232 -27 -460 -27 -271 0 -390 11 -588 55 -120
26 -303 86 -322 105 -12 12 -14 28 -9 67 47 367 359 845 799 1225 598 515
1393 913 2193 1097 141 32 342 69 427 78 46 5 136 0 159 -9z m2609 -666 c10
-5 50 -8 90 -6 216 8 829 -113 1129 -223 273 -100 552 -231 750 -352 361 -220
652 -515 802 -815 43 -85 102 -256 111 -323 l7 -46 -67 -59 c-37 -32 -82 -79
-101 -103 -114 -148 -483 -359 -857 -490 -266 -92 -663 -184 -875 -201 -64 -6
-194 -17 -287 -26 -302 -28 -900 -3 -1249 51 -272 43 -709 153 -909 231 -139
53 -143 61 -64 119 377 280 684 578 894 870 135 187 301 508 329 634 9 42 27
112 39 156 27 95 57 294 59 385 1 36 -5 91 -13 124 -15 58 -14 59 8 77 20 17
34 18 105 13 44 -4 89 -11 99 -16z m-1256 -94 c7 -21 -119 -176 -242 -299
-215 -217 -447 -400 -785 -621 -159 -104 -576 -334 -606 -334 -32 0 -68 45
-67 85 1 46 73 201 142 305 207 315 652 610 1192 791 230 76 357 102 366 73z"/>
</g>
</svg>
